<svg xmlns="http://www.w3.org/2000/svg" enable-background="new 0 0 50 50" viewBox="0 0 50 50" id="concert"><path d="M22.2,41.8c0.5-3.6,2.8-7,6.3-8.2c2-0.7,3.1-3.2,3.2-4.8c0-0.6-0.9-0.5-1.5-0.7c-1.4-0.3-6-2-4.9-3L42,8.5l0.2,0.2
		C42.5,9,43.1,9,43.4,8.6L44,8.1l1.2,1.2L45,9.5l0.5,0.5l0.9-0.9l-0.5-0.5l-0.2,0.2l-1.2-1.2l1-1l1.2,1.2l-0.2,0.2l0.5,0.5l0.9-0.9
		l-0.5-0.5L47,7.5l-1.2-1.2l0.9-0.8l1.2,1.2l-0.2,0.2l0.5,0.5L49,6.4L48.5,6l-0.2,0.2L47.1,5l0.6-0.6c0.4-0.4,0.4-0.9,0-1.3
		l-0.4-0.4c-0.2-0.2-0.6-0.3-0.9-0.2l-6.4,2.1c-0.7,0.2-0.9,1.1-0.5,1.5L40,6.5L23.1,23.5c-1.6-0.4-3-3.7-2.9-5.1
		c0.1-0.7,0-1.6-0.7-1.6c-1.4,0.1-2.9,0.9-3.9,1.8c-0.3,0.3-0.6,0.8-0.8,1.4c-1.2,3.5-4.6,5.9-8.2,6.3c-1.5,0.2-2.8,0.8-3.8,1.8
		c-3.3,3.3-2.1,9.9,2.8,14.8C12.2,49.5,21.3,48.9,22.2,41.8z M3.8,31.1c-0.3-0.3-0.3-0.8,0-1.1s0.8-0.3,1.1,0c0.3,0.3,0.3,0.8,0,1.1
		S4.1,31.4,3.8,31.1z M46.4,4.2c0.2,0.2,0.1,0.4,0,0.5c-0.1,0.1-0.4,0.1-0.5,0c-0.1-0.1-0.1-0.4,0-0.5C46.1,4.1,46.3,4.1,46.4,4.2z
		 M45.2,5.4c0.1,0.1,0.1,0.4,0,0.5c-0.1,0.1-0.3,0.1-0.5,0c-0.1-0.1-0.1-0.4,0-0.5C44.8,5.3,45.1,5.3,45.2,5.4z M44,6.7
		c0.1,0.1,0.1,0.4,0,0.5l0,0c-0.1,0.1-0.4,0.1-0.5,0c-0.1-0.2-0.1-0.4,0-0.5C43.6,6.5,43.8,6.5,44,6.7z M3.5,34.5
		c-0.3-0.3-0.3-0.8,0-1.1s0.8-0.3,1.1,0c0.3,0.3,0.3,0.8,0,1.1C4.3,34.8,3.8,34.8,3.5,34.5z M4.2,38c-0.3-0.3-0.3-0.8,0-1.1
		c0.3-0.3,0.8-0.3,1.1,0c0.3,0.3,0.3,0.8,0,1.1C5,38.3,4.5,38.3,4.2,38z M10.9,37.4c-2.7-1.7-4.1-5.7,1.6-7.8
		c3.6-1.4,6.2-5.1,6.8-6.2c0.1-0.1,0.2-0.1,0.3,0c1.1,1.7,2.1,1.6,3.1,1.8l0,0c0.3,2.8,3.8,3.9,6.6,4.8c-0.3,0.8-0.8,1.5-1.6,1.8
		c-4.2,1.5-7.3,5.4-8,10C18.2,39.1,13.6,39.1,10.9,37.4z"></path><rect width="4.4" height="1.8" x="13.2" y="31.5" transform="rotate(-134.999 15.418 32.38)"></rect><rect width="4.4" height="1.9" x="10.8" y="33.9" transform="rotate(-134.999 13.014 34.785)"></rect><path d="M18.3 38c-.3.3-.3.7 0 1 .3.3.7.3 1 0 .3-.3.3-.7 0-1C19.1 37.7 18.6 37.7 18.3 38zM26.2 31.1c.3.3.7.3 1 0 .3-.3.3-.7 0-1-.3-.3-.7-.3-1 0C26 30.4 26 30.8 26.2 31.1z"></path></svg>