<svg xmlns="http://www.w3.org/2000/svg" viewBox="0 0 32 32" id="drink"><path d="M24,8a1,1,0,0,0-1-1H15.3527l-.36-3.1147a1,1,0,0,0-.6768-.8339l-3-1a1,1,0,0,0-.6328,1.8974l2.3959.7983L13.34,7H9A1,1,0,0,0,8,8v3.58H8V16a8.0088,8.0088,0,0,0,7,7.93v3.2885l-3.2426.8106A1,1,0,0,0,12,30h8a1,1,0,0,0,.2427-1.97L17,27.2192V23.9307A8.0088,8.0088,0,0,0,24,16V12.42h0ZM22,9V11.337c-.0288-.0052-.0626-.0085-.09-.0141-.1-.02-.1926-.0432-.2828-.0677-.07-.0188-.1435-.0355-.21-.0564-.1376-.0437-.271-.09-.4083-.1394l-.06-.0213A6.7267,6.7267,0,0,0,18.34,10.58a6.7337,6.7337,0,0,0-2.5251.4242L15.5836,9ZM10,9h3.5706l.2785,2.4118c-.03.0008-.0535.0034-.0842.0039-.0346,0-.059.0042-.095.0042-.0459,0-.0773-.0047-.1209-.0054a4.9011,4.9011,0,0,1-1.7095-.2967c-.0569-.02-.1137-.0385-.1715-.0592l-.08-.0282q-.1175-.0426-.2411-.0848l-.0392-.0132a6.3905,6.3905,0,0,0-.7876-.2139l-.036-.0067q-.2049-.04-.4408-.07c-.0154-.002-.0276-.005-.0433-.0069Zm6,12a5.0017,5.0017,0,0,1-5-5,1,1,0,0,1,2,0,3.0086,3.0086,0,0,0,3,3,1,1,0,0,1,0,2Z"></path></svg>